<?xml version="1.0" encoding="UTF-8"?>
<svg id="Layer_1" data-name="Layer 1" xmlns="http://www.w3.org/2000/svg" viewBox="0 0 3600 3600">
  <defs>
    <style>
      .cls-1 {
        fill: #fff676;
      }
    </style>
  </defs>
  <path class="cls-1" d="M2280.64,386.77v618.73h-952.49V386.77H216.3v2834.3h1111.86v-516.94h952.49v516.94h1111.86V386.77h-1111.86,0ZM3161.57,2523.18H491.43v-1330.17h2670.14v1330.17Z"/>
  <rect class="cls-1" x="1782.85" y="1319.35" width="106.45" height="688.12"/>
  <polygon class="cls-1" points="2767.84 1469.57 2900.63 1469.57 2900.63 1606.17 2767.82 1606.17 2767.82 1469.6 2635.05 1469.6 2635.05 1333 2767.84 1333 2767.84 1469.57"/>
  <polygon class="cls-1" points="3033.42 1742.75 2900.66 1742.75 2900.66 1879.35 2767.84 1879.35 2767.84 1742.75 2900.63 1742.75 2900.63 1606.17 3033.42 1606.17 3033.42 1742.75"/>
  <polygon class="cls-1" points="2900.63 1879.35 2767.87 1879.35 2767.87 2015.95 2635.08 2015.95 2635.08 1879.35 2767.84 1879.35 2767.84 1742.75 2900.63 1742.75 2900.63 1879.35"/>
  <rect class="cls-1" x="2373.92" y="1457.28" width="132.79" height="421.23"/>
  <rect class="cls-1" x="2012.87" y="1457.28" width="132.79" height="421.23"/>
  <rect class="cls-1" x="2145.85" y="1320.66" width="228.05" height="136.6"/>
  <rect class="cls-1" x="2145.85" y="1878.5" width="228.05" height="136.6"/>
  <rect class="cls-1" x="1509.27" y="1452.81" width="132.79" height="421.23"/>
  <rect class="cls-1" x="1148.23" y="1452.81" width="132.79" height="421.23"/>
  <rect class="cls-1" x="1281.23" y="1316.22" width="228.05" height="136.6"/>
  <rect class="cls-1" x="1281.23" y="1874.03" width="228.05" height="136.6"/>
  <polygon class="cls-1" points="898.51 1868.33 765.75 1868.33 765.75 1731.73 898.56 1731.73 898.56 1868.3 1031.33 1868.3 1031.33 2004.9 898.51 2004.9 898.51 1868.33"/>
  <polygon class="cls-1" points="632.96 1595.15 765.72 1595.15 765.72 1458.55 898.51 1458.55 898.51 1595.15 765.75 1595.15 765.75 1731.73 632.96 1731.73 632.96 1595.15"/>
  <polygon class="cls-1" points="765.75 1458.55 898.51 1458.55 898.51 1321.95 1031.3 1321.95 1031.3 1458.55 898.54 1458.55 898.54 1595.15 765.75 1595.15 765.75 1458.55"/>
  <rect class="cls-1" x="1653.98" y="2257.91" width="347.05" height="136.6"/>
  <rect class="cls-1" x="1517.07" y="2121.69" width="137.96" height="137.96"/>
  <rect class="cls-1" x="2001.03" y="2119.95" width="137.96" height="137.96"/>
</svg>